# xmcd
#
# Track frame offsets:
#	150
#	17019
#	43858
#	60660
#	73979
#	94456
#	112340
#	128504
#	144399
#	159988
#	176611
#	191404
#	212358
#
# Disc length: 3054 seconds
#
# Revision: 1
# Processed by: cddbd v1.5.2PL0 Copyright (c) Steve Scherf et al.
# Submitted via: audiograbber 1.83.01
#
DISCID=ba0bec0d
DTITLE=Various Artist - Country Radio August 2013
DYEAR=2013
DGENRE=Country
TTITLE0=Boubon in Kentucky Dierks Bentley
TTITLE1=When i see this bar single version Kenny Chesney
TTITLE2=Drinks after work Toby Keith
TTITLE3=Everything i shouldn't be thinking about Thompson Square
TTITLE4=All kinds of kinds Single edit Miranda Lambert
TTITLE5=Night Train Jason Aldean
TTITLE6=Round Here Florida Georgia Line
TTITLE7=Girl Ridin shotgun Joe Diffie ft Thrash of Jawga Boyz
TTITLE8=Best Thing Andy Gibson
TTITLE9=Tonight I'm playing Possum Randy Travis with joe Nichols
TTITLE10=Little Umbrellas Sarah Darling
TTITLE11=Grandaddys Gun Aaron Lewis
TTITLE12=Wsting all these tears Cassandee Pope
EXTD=
EXTT0=
EXTT1=
EXTT2=
EXTT3=
EXTT4=
EXTT5=
EXTT6=
EXTT7=
EXTT8=
EXTT9=
EXTT10=
EXTT11=
EXTT12=
PLAYORDER=
